<svg width="205" height="205" viewBox="0 0 205 205" fill="none" xmlns="http://www.w3.org/2000/svg">
<path d="M102.533 0C59.7407 0 47.2254 0.0441455 44.7927 0.245954C36.0109 0.975932 30.5463 2.35863 24.5929 5.32269C20.0049 7.60092 16.3866 10.2418 12.8155 13.9437C6.31194 20.6948 2.37037 29.0005 0.943524 38.8733C0.249808 43.6663 0.0479995 44.6438 0.00700723 69.1256C-0.00875904 77.2862 0.00700723 88.0262 0.00700723 102.432C0.00700723 145.19 0.0543061 157.693 0.259268 160.121C0.96875 168.666 2.30888 174.042 5.14681 179.923C10.5704 191.18 20.9288 199.631 33.1319 202.784C37.3573 203.872 42.0241 204.471 48.0153 204.755C50.5537 204.865 76.4261 204.944 102.314 204.944C128.203 204.944 154.091 204.913 156.566 204.786C163.503 204.46 167.531 203.919 171.985 202.768C178.036 201.217 183.675 198.363 188.509 194.406C193.343 190.449 197.254 185.485 199.971 179.86C202.753 174.121 204.164 168.54 204.803 160.441C204.942 158.675 205 130.521 205 102.405C205 74.2844 204.937 46.1826 204.798 44.4167C204.152 36.1867 202.741 30.6528 199.868 24.8035C197.511 20.0153 194.894 16.4395 191.094 12.7833C184.315 6.30651 176.022 2.36494 166.138 0.93967C161.35 0.24753 160.396 0.0425689 135.895 0H102.533Z" fill="url(#paint0_radial_283_4790)"/>
<rect x="61.2466" y="66.1242" width="82.7096" height="78.856" rx="8.68289" fill="white"/>
<rect x="61.2466" y="65.8585" width="82.7096" height="23.0992" rx="8.68289" fill="#9399AF"/>
<rect x="61.2466" y="77.541" width="82.7096" height="11.4169" fill="#9399AF"/>
<rect x="77.4932" y="54.4418" width="10.831" height="23.0992" rx="1.44715" fill="#00154B"/>
<rect x="117.125" y="54.4417" width="10.831" height="23.0992" rx="1.44715" fill="#00154B"/>
<rect x="78.4775" y="100.906" width="9.84638" height="10.6203" rx="1.44715" fill="#9399AF"/>
<rect x="97.6782" y="100.906" width="9.84638" height="10.6203" rx="1.44715" fill="#D9D9D9"/>
<rect x="116.878" y="100.906" width="9.84638" height="10.6203" rx="1.44715" fill="#D9D9D9"/>
<rect x="30.7061" y="29.1649" width="143.588" height="143.588" rx="40.8005" stroke="white" stroke-width="12.089"/>
<g clip-path="url(#clip0_283_4790)">
<path d="M117.193 125.978V135.385H126.6L154.354 107.63L144.948 98.2236L117.193 125.978ZM161.603 100.381C162.582 99.4025 162.582 97.8097 161.603 96.8314L155.746 90.9745C154.768 89.9962 153.175 89.9962 152.197 90.9745L147.607 95.5647L157.013 104.971L161.603 100.381Z" fill="#D9D9D9"/>
</g>
<defs>
<radialGradient id="paint0_radial_283_4790" cx="0" cy="0" r="1" gradientUnits="userSpaceOnUse" gradientTransform="translate(194.933 282.79) rotate(-126.522) scale(362.143 336.913)">
<stop stop-color="#00154B"/>
<stop offset="0.0001" stop-color="#D9D9D9"/>
<stop offset="0.5" stop-color="#9399AF"/>
<stop offset="1" stop-color="#00154B" stop-opacity="0.9"/>
</radialGradient>
<clipPath id="clip0_283_4790">
<rect width="60.2" height="60.2" fill="white" transform="translate(109.668 82.7095)"/>
</clipPath>
</defs>
</svg>
